<?xml version="1.0" standalone="no"?>  
<!DOCTYPE svg PUBLIC "-//W3C//DTD SVG 1.1//EN" "http://www.w3.org/Graphics/SVG/1.1/DTD/svg11.dtd">  
<svg width="70" height="70" viewBox="0 0 70 70" xmlns="http://www.w3.org/2000/svg" xmlns:sketch="http://www.bohemiancoding.com/sketch/ns"><title>Feature 1</title><desc>Created with Sketch.</desc><g sketch:type="MSShapeGroup" fill="#CC3D55"><path d="M35 2.188c18.083 0 32.813 14.729 32.813 32.813 0 18.083-14.729 32.813-32.813 32.813-18.083 0-32.813-14.729-32.813-32.813 0-18.083 14.729-32.813 32.813-32.813zm0-2.188c-19.323 0-35 15.677-35 35s15.677 35 35 35 35-15.677 35-35-15.677-35-35-35z"></path><path d="M53.083 48.125c1.021-.729 1.604-1.677 1.604-2.917 0-3.792-5.906-5.104-10.938-5.104-1.75 0-3.646.146-5.396.583.146-.365.292-.802.292-1.313 0-1.24-.583-2.188-1.604-2.917 1.021-.729 1.604-1.677 1.604-2.917 0-1.24-.583-2.188-1.604-2.917 1.021-.729 1.604-1.677 1.604-2.917 0-1.24-.583-2.188-1.604-2.917 1.021-.729 1.604-1.677 1.604-2.917 0-3.792-5.906-5.104-10.938-5.104-5.031 0-10.938 1.313-10.938 5.104 0 1.24.583 2.188 1.604 2.917-1.021.729-1.604 1.677-1.604 2.917 0 1.24.583 2.188 1.604 2.917-1.021.729-1.604 1.677-1.604 2.917 0 1.24.583 2.188 1.604 2.917-1.021.729-1.604 1.677-1.604 2.917 0 1.24.583 2.188 1.604 2.917-1.021.729-1.604 1.677-1.604 2.917 0 3.792 5.906 5.104 10.938 5.104 1.75 0 3.646-.146 5.396-.583-.146.365-.292.802-.292 1.313 0 3.792 5.906 5.104 10.938 5.104 5.031 0 10.938-1.313 10.938-5.104 0-1.24-.583-2.188-1.604-2.917zm-9.333 5.833c-4.813 0-8.75-1.313-8.75-2.917 0-.656.656-1.24 1.75-1.75 2.042.729 4.594 1.021 7 1.021 2.406 0 4.958-.292 7-1.021 1.094.51 1.75 1.094 1.75 1.75 0 1.604-3.938 2.917-8.75 2.917zm-24.792-8.75c0-.656.656-1.24 1.75-1.75 2.042.729 4.594 1.021 7 1.021 1.75 0 3.646-.146 5.396-.583-.146.365-.292.802-.292 1.313 0 .802.292 1.531.802 2.115-1.531.51-3.646.802-5.906.802-4.813 0-8.75-1.313-8.75-2.917zm0-5.833c0-.656.656-1.24 1.75-1.75 2.042.729 4.594 1.021 7 1.021 2.406 0 4.958-.292 7-1.021 1.094.51 1.75 1.094 1.75 1.75 0 .656-.656 1.24-1.75 1.75-.51.219-1.167.438-1.823.583-1.458.365-3.208.583-5.177.583-1.896 0-3.719-.219-5.177-.583-.729-.146-1.313-.365-1.823-.583-1.094-.51-1.75-1.094-1.75-1.75zm0-5.833c0-.656.656-1.24 1.75-1.75 2.042.729 4.594 1.021 7 1.021 2.406 0 4.958-.292 7-1.021 1.094.51 1.75 1.094 1.75 1.75 0 .656-.656 1.24-1.75 1.75-.51.219-1.167.438-1.823.583-1.458.365-3.208.583-5.177.583-1.896 0-3.719-.219-5.177-.583-.729-.146-1.313-.365-1.823-.583-1.094-.51-1.75-1.094-1.75-1.75zm0-5.833c0-.656.656-1.24 1.75-1.75 2.042.729 4.594 1.021 7 1.021 2.406 0 4.958-.292 7-1.021 1.094.51 1.75 1.094 1.75 1.75 0 .656-.656 1.24-1.75 1.75-.51.219-1.167.438-1.823.583-1.458.365-3.208.583-5.177.583-1.896 0-3.719-.219-5.177-.583-.729-.146-1.313-.365-1.823-.583-1.094-.51-1.75-1.094-1.75-1.75zm0-5.833c0-1.604 3.938-2.917 8.75-2.917 4.813 0 8.75 1.313 8.75 2.917 0 .656-.656 1.24-1.75 1.75-.51.219-1.167.438-1.823.583-1.458.365-3.208.583-5.177.583-1.896 0-3.719-.219-5.177-.583-.729-.146-1.313-.365-1.823-.583-1.094-.51-1.75-1.094-1.75-1.75zm33.542 23.333c0 .656-.656 1.24-1.75 1.75-.51.219-1.167.438-1.823.583-1.458.365-3.208.583-5.177.583-1.896 0-3.719-.219-5.177-.583-.292-.073-.51-.146-.729-.219-.365-.146-.802-.292-1.094-.438-.365-.146-.729-.365-1.021-.583-.438-.365-.729-.729-.729-1.167 0-.438.292-.802.729-1.167.292-.219.583-.365 1.021-.583l1.094-.438c1.531-.51 3.646-.802 5.906-.802 4.813.146 8.75 1.458 8.75 3.063z"></path></g></svg>