<?xml version="1.0" standalone="no"?>  
<!DOCTYPE svg PUBLIC "-//W3C//DTD SVG 1.1//EN" "http://www.w3.org/Graphics/SVG/1.1/DTD/svg11.dtd">  
<svg width="70" height="70" viewBox="0 0 70 70" xmlns="http://www.w3.org/2000/svg" xmlns:sketch="http://www.bohemiancoding.com/sketch/ns">
	<title>hb_heating</title>
	<desc>Created with Sketch.</desc>
	<g sketch:type="MSShapeGroup" fill="#CC3D55">
		<path d="M35 2.188c18.156 0 32.813 14.656 32.813 32.813 0 18.156-14.656 32.813-32.813 32.813-18.156 0-32.813-14.656-32.813-32.813 0-18.156 14.656-32.813 32.813-32.813zm0-2.188c-19.25 0-35 15.75-35 35s15.75 35 35 35 35-15.75 35-35-15.75-35-35-35zM35 19.688c6.125 0 10.938 4.813 10.938 10.938 0 10.938-10.938 19.688-10.938 19.688s-10.938-8.75-10.938-19.688c0-6.125 4.813-10.938 10.938-10.938zm0-2.188c-7.219 0-13.125 5.906-13.125 13.125 0 11.813 11.375 21 11.813 21.438.438.219.875.438 1.313.438.438 0 .875-.219 1.313-.438.438-.438 11.813-9.625 11.813-21.438 0-7.219-5.906-13.125-13.125-13.125zM35 26.25c2.406 0 4.375 1.969 4.375 4.375 0 2.406-1.969 4.375-4.375 4.375-2.406 0-4.375-1.969-4.375-4.375 0-2.406 1.969-4.375 4.375-4.375zm0-2.188c-3.719 0-6.563 2.844-6.563 6.563s2.844 6.563 6.563 6.563 6.563-2.844 6.563-6.563-2.844-6.563-6.563-6.563z">
		</path>
	</g>
</svg>