<?xml version="1.0" standalone="no"?>  
<!DOCTYPE svg PUBLIC "-//W3C//DTD SVG 1.1//EN" "http://www.w3.org/Graphics/SVG/1.1/DTD/svg11.dtd">  
<svg width="70" height="70" viewBox="0 0 70 70" xmlns="http://www.w3.org/2000/svg" xmlns:sketch="http://www.bohemiancoding.com/sketch/ns"><title>Feature 4</title><desc>Created with Sketch.</desc><g transform="translate(0 0)" sketch:type="MSShapeGroup" fill="#CC3D55"><path d="M35 2.188c18.083 0 32.813 14.729 32.813 32.813 0 18.083-14.729 32.813-32.813 32.813-18.083 0-32.813-14.729-32.813-32.813 0-18.083 14.729-32.813 32.813-32.813zm0-2.188c-19.323 0-35 15.677-35 35s15.677 35 35 35 35-15.677 35-35-15.677-35-35-35z"></path><circle cx="35" cy="33.542" r="2.188"></circle><circle cx="27.708" cy="33.542" r="2.188"></circle><circle cx="42.292" cy="33.542" r="2.188"></circle><path d="M46.667 22.604c2.042 0 3.646 1.604 3.646 3.646v14.583c0 2.042-1.604 3.646-3.646 3.646h-5.833l-5.833 5.833v-5.833h-11.667c-2.042 0-3.646-1.604-3.646-3.646v-14.583c0-2.042 1.604-3.646 3.646-3.646h23.333zm0-2.188h-23.333c-3.208 0-5.833 2.625-5.833 5.833v14.583c0 3.208 2.625 5.833 5.833 5.833h9.479v3.646c0 .875.51 1.677 1.385 2.042.292.146.583.146.802.146.583 0 1.094-.219 1.531-.656l5.177-5.177h4.958c3.208 0 5.833-2.625 5.833-5.833v-14.583c0-3.208-2.625-5.833-5.833-5.833z"></path></g></svg>