<?xml version="1.0" standalone="no"?><!DOCTYPE svg PUBLIC "-//W3C//DTD SVG 1.1//EN" "http://www.w3.org/Graphics/SVG/1.1/DTD/svg11.dtd"><svg width="200" height="200" viewBox="0 0 200 200" version="1.1" xmlns="http://www.w3.org/2000/svg" xmlns:xlink="http://www.w3.org/1999/xlink"><defs><style type="text/css"><![CDATA[
@font-face { font-family: ifont; src: url("//at.alicdn.com/t/font_1442373896_4754455.eot?#iefix") format("embedded-opentype"), url("//at.alicdn.com/t/font_1442373896_4754455.woff") format("woff"), url("//at.alicdn.com/t/font_1442373896_4754455.ttf") format("truetype"), url("//at.alicdn.com/t/font_1442373896_4754455.svg#ifont") format("svg"); }

]]></style></defs><g class="transform-group"><g transform="scale(0.1953125, 0.1953125)"><path d="M578.176 439.744l339.264 0c21.056 0 38.144-17.088 38.144-38.016L955.584 81.28c0-20.992-17.088-38.016-38.144-38.016L578.176 43.264c-20.992 0-37.952 17.024-37.952 38.016l0 320.448C540.224 422.656 557.184 439.744 578.176 439.744zM612.224 153.344c0-20.992 17.088-38.016 38.08-38.016l194.816 0c20.992 0 37.888 17.024 37.888 38.016l0 175.872c0 20.992-16.896 38.08-37.888 38.08l-194.816 0c-20.992 0-38.08-17.088-38.08-38.08L612.224 153.344zM394.176 548.608 54.784 548.608c-21.056 0-38.016 17.024-38.016 38.016l0 320.384c0 21.056 17.024 38.016 38.016 38.016l339.328 0c20.992 0 38.016-16.96 38.016-38.016L432.128 586.624C432.128 565.632 415.104 548.608 394.176 548.608zM359.68 834.496c0 21.056-17.024 38.08-38.016 38.08L126.848 872.576c-20.992 0-38.016-17.024-38.016-38.08l0-175.808c0-20.992 17.024-38.016 38.016-38.016l194.816 0c20.992 0 38.016 17.024 38.016 38.016L359.68 834.496zM1000.512 684.032l-63.168 63.232c0 99.648-80.96 180.48-180.544 180.48-99.776 0-180.48-80.896-180.48-180.48 0-99.712 80.768-180.48 180.48-180.48 21.504 0 41.856 4.416 60.992 11.328l54.4-54.464c-34.752-17.92-73.536-29.056-115.392-29.056-139.584 0-252.672 113.088-252.672 252.672 0 139.584 113.088 252.672 252.672 252.672 139.648 0 252.672-113.152 252.672-252.672C1009.408 725.376 1005.76 704.384 1000.512 684.032zM394.176 43.264 54.784 43.264c-21.056 0-38.016 17.024-38.016 38.016l0 320.448c0 20.992 17.024 38.016 38.016 38.016l339.328 0c20.992 0 38.016-17.088 38.016-38.016L432.128 81.28C432.128 60.288 415.104 43.264 394.176 43.264zM359.68 329.216c0 20.992-17.024 38.08-38.016 38.08L126.848 367.296c-20.992 0-38.016-17.088-38.016-38.08L88.832 153.344c0-20.992 17.024-38.016 38.016-38.016l194.816 0c20.992 0 38.016 17.024 38.016 38.016L359.68 329.216zM942.784 548.8l-189.888 202.624-73.92-78.656-48.64 51.456 74.112 78.848-1.088 1.152 48.576 51.456 0.96-1.024 0.96 1.024 48.64-51.456-1.152-1.28 190.08-202.816L942.784 548.8z" fill="#eb4f38"></path></g></g></svg>