<?xml version="1.0" encoding="UTF-8" standalone="no"?>
<!-- Created with Inkscape (http://www.inkscape.org/) -->

<svg
   xmlns:osb="http://www.openswatchbook.org/uri/2009/osb"
   xmlns:dc="http://purl.org/dc/elements/1.1/"
   xmlns:cc="http://creativecommons.org/ns#"
   xmlns:rdf="http://www.w3.org/1999/02/22-rdf-syntax-ns#"
   xmlns:svg="http://www.w3.org/2000/svg"
   xmlns="http://www.w3.org/2000/svg"
   xmlns:sodipodi="http://sodipodi.sourceforge.net/DTD/sodipodi-0.dtd"
   xmlns:inkscape="http://www.inkscape.org/namespaces/inkscape"
   id="svg7384"
   height="24"
   width="24"
   version="1.1"
   inkscape:version="0.48.4 r9939"
   sodipodi:docname="call-start-symbolic.svg">
  <defs
     id="defs9">
    <linearGradient
       inkscape:collect="always"
       id="linearGradient5228"
       osb:paint="gradient">
      <stop
         style="stop-color:#0e0000;stop-opacity:1;"
         offset="0"
         id="stop5230" />
      <stop
         style="stop-color:#0e0000;stop-opacity:0;"
         offset="1"
         id="stop5232" />
    </linearGradient>
    <linearGradient
       id="linearGradient5214"
       osb:paint="solid">
      <stop
         style="stop-color:#0a0000;stop-opacity:1;"
         offset="0"
         id="stop5216" />
    </linearGradient>
  </defs>
  <sodipodi:namedview
     pagecolor="#ffffff"
     bordercolor="#666666"
     borderopacity="1"
     objecttolerance="10"
     gridtolerance="10"
     guidetolerance="10"
     inkscape:pageopacity="0"
     inkscape:pageshadow="2"
     inkscape:window-width="1024"
     inkscape:window-height="712"
     id="namedview7"
     showgrid="false"
     inkscape:zoom="14.75"
     inkscape:cx="10.518005"
     inkscape:cy="13.423729"
     inkscape:window-x="-4"
     inkscape:window-y="-4"
     inkscape:window-maximized="1"
     inkscape:current-layer="svg7384" />
  <metadata
     id="metadata90">
    <rdf:RDF>
      <cc:Work
         rdf:about="">
        <dc:format>image/svg+xml</dc:format>
        <dc:type
           rdf:resource="http://purl.org/dc/dcmitype/StillImage" />
        <dc:title>Gnome Symbolic Icon Theme</dc:title>
      </cc:Work>
    </rdf:RDF>
  </metadata>
  <title
     id="title9167">Gnome Symbolic Icon Theme</title>
  <g
     id="layer12"
     transform="translate(-76.40678,-741.9322)"
     style="fill:#5e6166;fill-opacity:1">
    <path
       id="path44084"
       style="fill:#5e6166;enable-background:new;fill-opacity:1"
       d="m 92.301,748 c -0.7713,0.0431 -1.3331,0.68465 -1.8161,1.2222 -0.46673,0.60189 -0.94251,1.2592 -1.0739,2.0256 -6.57e-4,0.22907 0.28412,0.34038 0.40841,0.51848 0.47078,0.42342 0.95555,1.0675 0.65626,1.7263 -0.42175,0.83704 -1.218,1.3922 -1.8325,2.0789 -0.49766,0.49947 -1.1348,1.1788 -1.9118,0.89084 -0.57631,-0.21885 -0.91548,-0.75054 -1.3648,-1.1129 -0.62168,0.0481 -1.1702,0.43406 -1.6902,0.75268 -0.66645,0.4833 -1.3567,1.077 -1.5985,1.8932 -0.14214,0.64969 0.54025,0.99854 0.96224,1.3405 1.0542,0.76368 2.4704,0.86461 3.6752,0.42739 1.9405,-0.68924 3.5042,-2.1235 4.8813,-3.6091 1.177,-1.3385 2.3009,-2.908 2.4517,-4.7397 0.10335,-1.2882 -0.55312,-2.5653 -1.5457,-3.3568 l -0.09981,-0.0394 -0.1019,-0.0182 z"
       inkscape:connector-curvature="0" />
  </g>
  <path
     sodipodi:type="arc"
     style="fill:none;stroke:#5e6166;stroke-width:0.22826447000000000;stroke-linecap:butt;stroke-linejoin:miter;stroke-miterlimit:4.09999990000000030;stroke-opacity:1;stroke-dasharray:none"
     id="path2992"
     sodipodi:cx="7.762712"
     sodipodi:cy="6.3389831"
     sodipodi:rx="5.5932202"
     sodipodi:ry="5.3898306"
     d="m 13.355932,6.3389831 a 5.5932202,5.3898306 0 1 1 -11.1864402,0 5.5932202,5.3898306 0 1 1 11.1864402,0 z"
     transform="matrix(2.0676853,0,0,2.164579,-4.016947,-1.6534333)" />
</svg>
