<?xml version="1.0" encoding="UTF-8" standalone="no"?>
<!-- Generator: Adobe Illustrator 17.1.0, SVG Export Plug-In . SVG Version: 6.00 Build 0)  -->

<svg
   xmlns:dc="http://purl.org/dc/elements/1.1/"
   xmlns:cc="http://creativecommons.org/ns#"
   xmlns:rdf="http://www.w3.org/1999/02/22-rdf-syntax-ns#"
   xmlns:svg="http://www.w3.org/2000/svg"
   xmlns="http://www.w3.org/2000/svg"
   xmlns:sodipodi="http://sodipodi.sourceforge.net/DTD/sodipodi-0.dtd"
   xmlns:inkscape="http://www.inkscape.org/namespaces/inkscape"
   version="1.1"
   id="Layer_1"
   x="0px"
   y="0px"
   width="1000px"
   height="1000px"
   viewBox="0 0 1000 1000"
   enable-background="new 0 0 1000 1000"
   xml:space="preserve"
   inkscape:version="0.48.4 r9939"
   sodipodi:docname="Coins.svg"><metadata
   id="metadata13"><rdf:RDF><cc:Work
       rdf:about=""><dc:format>image/svg+xml</dc:format><dc:type
         rdf:resource="http://purl.org/dc/dcmitype/StillImage" /></cc:Work></rdf:RDF></metadata><defs
   id="defs11" /><sodipodi:namedview
   pagecolor="#ffffff"
   bordercolor="#666666"
   borderopacity="1"
   objecttolerance="10"
   gridtolerance="10"
   guidetolerance="10"
   inkscape:pageopacity="0"
   inkscape:pageshadow="2"
   inkscape:window-width="1280"
   inkscape:window-height="747"
   id="namedview9"
   showgrid="false"
   inkscape:zoom="0.236"
   inkscape:cx="-154.66102"
   inkscape:cy="500"
   inkscape:window-x="-8"
   inkscape:window-y="-8"
   inkscape:window-maximized="1"
   inkscape:current-layer="Layer_1" />
<g
   id="g3"
   style="fill:#0085af;fill-opacity:0.94117647"
   transform="matrix(1,0,0,1.1588032,8.4745763,-154.32649)">
	<path
   d="m 939.8,372.978 c -12.864,-8.722 -30.323,-16.281 -51.894,-22.467 -40.388,-11.582 -93.504,-17.961 -149.562,-17.961 -56.058,0 -109.175,6.379 -149.562,17.961 -21.57,6.186 -39.029,13.745 -51.894,22.467 -23.678,16.054 -29.42,34.352 -29.856,47.426 H 507 v 1.67 91.964 91.964 91.965 91.964 93.382 c 0,13.211 5.216,32.444 30.065,49.055 12.855,8.593 30.325,16.013 51.922,22.052 40.101,11.214 93.143,17.39 149.356,17.39 56.213,0 109.257,-6.176 149.356,-17.389 21.598,-6.04 39.066,-13.459 51.923,-22.053 24.85,-16.61 30.065,-35.844 30.065,-49.055 v -462.91 h -0.032 C 969.22,407.329 963.478,389.031 939.8,372.978 z m -35.112,504.567 c -5.422,3.964 -20.01,11.445 -49.364,17.988 -32.619,7.271 -74.163,11.274 -116.98,11.274 -42.816,0 -84.361,-4.004 -116.979,-11.274 C 592.01,888.99 577.422,881.51 572,877.545 V 856.1 c 5.282,1.896 10.872,3.698 16.781,5.393 40.388,11.582 93.504,17.961 149.562,17.961 56.058,0 109.175,-6.379 149.562,-17.961 5.91,-1.694 11.5,-3.496 16.782,-5.393 v 21.445 z m 0,-87.615 c 0,-0.008 10e-4,-0.014 10e-4,-0.021 l -10e-4,0.021 0,0 z m 0,-5.629 c -1.943,1.464 -5.108,3.413 -9.773,5.629 -8.139,3.864 -20.838,8.535 -39.572,12.842 -32.767,7.533 -74.317,11.682 -116.999,11.682 -42.682,0 -84.232,-4.148 -116.999,-11.682 -18.734,-4.307 -31.433,-8.978 -39.572,-12.842 -4.665,-2.215 -7.83,-4.164 -9.772,-5.629 v -20.165 c 5.282,1.896 10.872,3.698 16.781,5.393 40.388,11.582 93.504,17.961 149.562,17.961 56.058,0 109.175,-6.379 149.562,-17.961 5.91,-1.694 11.5,-3.496 16.782,-5.393 v 20.165 z m 0,-86.335 c 0,-0.008 10e-4,-0.014 10e-4,-0.021 l -10e-4,0.021 0,0 z m 0,-5.63 c -1.943,1.465 -5.107,3.414 -9.773,5.63 -8.139,3.864 -20.838,8.535 -39.573,12.842 -32.767,7.533 -74.317,11.682 -116.999,11.682 -42.682,0 -84.232,-4.148 -116.999,-11.682 -18.734,-4.307 -31.434,-8.978 -39.573,-12.842 -4.665,-2.216 -7.829,-4.164 -9.772,-5.629 v -20.166 c 5.282,1.896 10.872,3.698 16.781,5.393 40.388,11.582 93.504,17.961 149.562,17.961 56.058,0 109.175,-6.379 149.562,-17.961 5.91,-1.694 11.5,-3.496 16.782,-5.393 v 20.165 z m 0,-86.335 c 0,-0.007 10e-4,-0.014 10e-4,-0.021 l -10e-4,0.021 0,0 z m 0,-5.63 c -1.943,1.465 -5.108,3.415 -9.775,5.63 -8.139,3.865 -20.838,8.535 -39.571,12.842 -32.767,7.533 -74.317,11.682 -116.999,11.682 -42.682,0 -84.232,-4.148 -116.999,-11.682 -18.733,-4.307 -31.432,-8.977 -39.571,-12.842 -4.666,-2.215 -7.831,-4.164 -9.774,-5.629 v -20.165 c 5.282,1.896 10.872,3.698 16.781,5.393 40.388,11.582 93.504,17.961 149.562,17.961 56.058,0 109.175,-6.379 149.562,-17.961 5.91,-1.694 11.5,-3.496 16.782,-5.393 v 20.164 z m 0,-86.334 c 0,-0.008 10e-4,-0.014 10e-4,-0.021 l -10e-4,0.021 0,0 z m 0,-5.629 c -1.943,1.464 -5.108,3.414 -9.774,5.629 -8.139,3.865 -20.838,8.535 -39.572,12.842 -32.767,7.533 -74.317,11.682 -116.999,11.682 -42.682,0 -84.232,-4.148 -116.999,-11.682 -18.733,-4.307 -31.433,-8.977 -39.572,-12.842 -4.666,-2.215 -7.83,-4.164 -9.773,-5.629 v -20.165 c 5.282,1.896 10.872,3.698 16.781,5.393 40.388,11.582 93.504,17.961 149.562,17.961 56.058,0 109.175,-6.379 149.562,-17.961 5.91,-1.694 11.5,-3.496 16.782,-5.393 v 20.165 z m -9.772,-86.335 c -8.139,3.864 -20.84,8.535 -39.573,12.842 -32.767,7.533 -74.317,11.682 -116.999,11.682 -42.682,0 -84.232,-4.148 -116.999,-11.682 -18.733,-4.307 -31.435,-8.978 -39.573,-12.842 1.14,-0.541 2.381,-1.1 3.704,-1.67 8.123,-3.497 19.76,-7.469 35.869,-11.172 32.767,-7.533 74.317,-11.682 116.999,-11.682 42.682,0 84.232,4.148 116.999,11.682 16.109,3.703 27.747,7.675 35.869,11.172 1.323,0.571 2.564,1.129 3.704,1.67 z"
   id="path5"
   style="fill:#0085af;fill-opacity:0.94117647"
   inkscape:connector-curvature="0" />
	<path
   d="m 458.326,185.075 c -12.864,-8.722 -30.323,-16.28 -51.894,-22.466 -40.388,-11.582 -93.504,-17.961 -149.562,-17.961 -56.058,0 -109.175,6.379 -149.562,17.961 -21.57,6.186 -39.029,13.744 -51.894,22.466 -23.679,16.054 -29.421,34.353 -29.856,47.427 h -0.031 v 1.669 91.965 91.964 91.964 90.964 90.938 93.938 97.074 c 0,13.211 5.216,32.444 30.065,49.055 12.855,8.594 30.324,16.013 51.922,22.052 40.1,11.214 93.143,17.39 149.356,17.39 56.213,0 109.256,-6.176 149.356,-17.39 21.597,-6.039 39.066,-13.458 51.922,-22.052 24.85,-16.61 30.065,-35.844 30.065,-49.055 V 785.904 691.966 601.028 510.064 418.1 326.136 234.171 232.502 h -0.031 c -0.435,-13.074 -6.177,-31.373 -29.856,-47.427 z m -35.112,692.136 c -5.422,3.965 -20.009,11.445 -49.364,17.988 -32.618,7.271 -74.163,11.274 -116.979,11.274 -42.817,0 -84.361,-4.004 -116.979,-11.274 -29.354,-6.543 -43.942,-14.023 -49.364,-17.988 v -25.138 c 5.282,1.896 10.872,3.698 16.781,5.393 40.388,11.582 93.504,17.961 149.562,17.961 56.058,0 109.175,-6.379 149.562,-17.961 5.91,-1.694 11.499,-3.496 16.781,-5.393 v 25.138 z m 0,-96.937 c -1.943,1.465 -5.107,3.414 -9.773,5.629 -8.139,3.864 -20.838,8.535 -39.572,12.842 -32.767,7.533 -74.317,11.682 -116.999,11.682 -42.682,0 -84.232,-4.148 -116.999,-11.682 -18.734,-4.307 -31.433,-8.978 -39.572,-12.842 -4.665,-2.215 -7.83,-4.164 -9.773,-5.629 v -22.139 c 5.282,1.896 10.872,3.698 16.781,5.393 40.388,11.582 93.504,17.961 149.562,17.961 56.058,0 109.175,-6.379 149.562,-17.961 5.91,-1.694 11.499,-3.496 16.781,-5.393 v 22.139 z m 0,-93.937 c -1.943,1.465 -5.107,3.413 -9.772,5.629 -8.139,3.864 -20.838,8.535 -39.573,12.842 -32.767,7.533 -74.317,11.682 -116.999,11.682 -42.682,0 -84.232,-4.148 -116.999,-11.682 -18.734,-4.307 -31.434,-8.978 -39.573,-12.842 -4.665,-2.216 -7.829,-4.164 -9.772,-5.629 v -19.14 c 5.282,1.896 10.872,3.698 16.781,5.393 40.388,11.582 93.504,17.961 149.562,17.961 56.058,0 109.175,-6.379 149.562,-17.961 5.91,-1.694 11.499,-3.496 16.781,-5.393 v 19.14 z m 0,-90.939 c -1.943,1.465 -5.108,3.414 -9.773,5.629 -8.139,3.865 -20.838,8.535 -39.571,12.842 -32.767,7.533 -74.317,11.682 -116.999,11.682 -42.682,0 -84.232,-4.148 -116.999,-11.682 -18.733,-4.307 -31.432,-8.977 -39.571,-12.842 -4.666,-2.215 -7.83,-4.164 -9.773,-5.629 v -19.165 c 5.282,1.896 10.872,3.698 16.781,5.393 40.388,11.582 93.504,17.961 149.562,17.961 56.058,0 109.175,-6.379 149.562,-17.961 5.91,-1.694 11.499,-3.496 16.781,-5.393 v 19.165 z m 0,-90.963 c -1.943,1.465 -5.108,3.414 -9.773,5.629 -8.139,3.864 -20.838,8.535 -39.572,12.842 -32.767,7.533 -74.317,11.682 -116.999,11.682 -42.682,0 -84.232,-4.148 -116.999,-11.682 -18.733,-4.307 -31.433,-8.978 -39.572,-12.842 -4.665,-2.215 -7.83,-4.164 -9.773,-5.629 V 484.27 c 5.282,1.896 10.872,3.698 16.781,5.393 40.388,11.582 93.504,17.961 149.562,17.961 56.058,0 109.175,-6.379 149.562,-17.961 5.91,-1.694 11.499,-3.496 16.781,-5.393 v 20.165 z m 0,-91.964 c -1.943,1.465 -5.107,3.414 -9.772,5.629 -8.139,3.864 -20.838,8.535 -39.572,12.842 -32.767,7.533 -74.317,11.682 -116.999,11.682 -42.682,0 -84.232,-4.148 -116.999,-11.682 -18.734,-4.307 -31.433,-8.978 -39.572,-12.842 -4.665,-2.215 -7.83,-4.164 -9.772,-5.629 v -20.165 c 5.282,1.896 10.872,3.698 16.781,5.393 40.388,11.582 93.504,17.961 149.562,17.961 56.058,0 109.175,-6.379 149.562,-17.961 5.91,-1.694 11.499,-3.496 16.781,-5.393 v 20.165 z m 0,-91.964 c -1.943,1.465 -5.107,3.413 -9.772,5.629 -8.139,3.864 -20.838,8.535 -39.573,12.842 -32.767,7.533 -74.317,11.682 -116.999,11.682 -42.682,0 -84.232,-4.148 -116.999,-11.682 -18.734,-4.307 -31.434,-8.978 -39.573,-12.842 -4.665,-2.216 -7.829,-4.164 -9.772,-5.629 v -20.166 c 5.282,1.896 10.872,3.698 16.781,5.393 40.388,11.582 93.504,17.961 149.562,17.961 56.058,0 109.175,-6.379 149.562,-17.961 5.91,-1.694 11.499,-3.496 16.781,-5.393 v 20.166 z m -9.772,-86.336 c -8.139,3.864 -20.842,8.536 -39.573,12.842 -32.767,7.533 -74.317,11.682 -116.999,11.682 -42.682,0 -84.232,-4.148 -116.999,-11.682 -18.731,-4.306 -31.435,-8.978 -39.573,-12.842 1.14,-0.541 2.379,-1.1 3.702,-1.669 8.123,-3.498 19.763,-7.47 35.872,-11.173 32.766,-7.532 74.317,-11.681 116.999,-11.681 42.682,0 84.233,4.148 116.999,11.681 16.108,3.703 27.749,7.675 35.872,11.173 1.321,0.569 2.561,1.128 3.7,1.669 z"
   id="path7"
   style="fill:#0085af;fill-opacity:0.94117647"
   inkscape:connector-curvature="0" />
</g>
</svg>