<?xml version="1.0" encoding="utf-8"?>
<!-- Generator: Adobe Illustrator 16.0.0, SVG Export Plug-In . SVG Version: 6.00 Build 0)  -->
<!DOCTYPE svg PUBLIC "-//W3C//DTD SVG 1.1//EN" "http://www.w3.org/Graphics/SVG/1.1/DTD/svg11.dtd">
<svg version="1.1" id="Layer_1" xmlns="http://www.w3.org/2000/svg" xmlns:xlink="http://www.w3.org/1999/xlink" x="0px" y="0px"
	 width="50px" height="50px" viewBox="0 0 50 50" enable-background="new 0 0 50 50" xml:space="preserve">
<g>
	<path d="M25,10c-8.271,0-15,6.729-15,15s6.729,15,15,15s15-6.729,15-15S33.271,10,25,10z M25,37.777
		c-7.044,0-12.777-5.731-12.777-12.777S17.956,12.223,25,12.223S37.777,17.954,37.777,25S32.044,37.777,25,37.777z"/>
	<path d="M22.296,21.384c2.449,0,4.436-0.794,4.436-1.774v-1.097c0,0.98-1.986,1.774-4.436,1.774c-2.451,0-4.436-0.794-4.436-1.774
		v1.097C17.86,20.59,19.845,21.384,22.296,21.384z"/>
	<path d="M22.296,23.144c2.449,0,4.436-0.794,4.436-1.774v-1.098c0,0.98-1.986,1.773-4.436,1.773c-2.451,0-4.436-0.793-4.436-1.773
		v1.098C17.86,22.35,19.845,23.144,22.296,23.144z"/>
	<path d="M22.296,24.904c2.449,0,4.436-0.793,4.436-1.774v-1.098c0,0.98-1.986,1.774-4.436,1.774c-2.451,0-4.436-0.794-4.436-1.774
		v1.098C17.86,24.111,19.845,24.904,22.296,24.904z"/>
	<path d="M22.296,19.596c2.449,0,4.436-0.793,4.436-1.774V17.4c0-0.98-1.986-1.774-4.436-1.774c-2.451,0-4.436,0.794-4.436,1.774
		v0.422C17.86,18.802,19.845,19.596,22.296,19.596z M22.296,16.069c2.437,0,3.991,0.788,3.991,1.331s-1.555,1.331-3.991,1.331
		c-2.438,0-3.992-0.788-3.992-1.331S19.858,16.069,22.296,16.069z"/>
	<path d="M26.731,24.46v-0.668c0,0.251-0.133,0.49-0.368,0.707C26.485,24.485,26.607,24.471,26.731,24.46z"/>
	<path d="M22.296,25.567c-2.451,0-4.436-0.794-4.436-1.774v1.098c0,0.98,1.984,1.774,4.436,1.774c0.107,0,0.214-0.004,0.319-0.007
		c0.066-0.448,0.339-0.831,0.757-1.146C23.026,25.546,22.667,25.567,22.296,25.567z"/>
	<path d="M17.86,25.673v1.098c0,0.98,1.984,1.774,4.436,1.774c0.101,0,0.199-0.004,0.298-0.006c0-0.493,0-0.891,0-1.098
		c-0.099,0.003-0.197,0.006-0.298,0.006C19.845,27.448,17.86,26.654,17.86,25.673z"/>
	<path d="M17.86,27.434v1.098c0,0.98,1.984,1.774,4.436,1.774c0.101,0,0.199-0.004,0.298-0.006c0-0.367,0-0.74,0-1.098
		c-0.099,0.003-0.197,0.006-0.298,0.006C19.845,29.208,17.86,28.414,17.86,27.434z"/>
	<path d="M17.86,29.194v1.098c0,0.98,1.984,1.774,4.436,1.774c0.101,0,0.199-0.003,0.298-0.005c0-0.29,0-0.671,0-1.098
		c-0.099,0.002-0.197,0.006-0.298,0.006C19.845,30.968,17.86,30.174,17.86,29.194z"/>
	<path d="M27.705,29.755c-2.449,0-4.435-0.794-4.435-1.774v1.098c0,0.98,1.985,1.774,4.435,1.774c2.451,0,4.436-0.794,4.436-1.774
		v-1.098C32.141,28.961,30.156,29.755,27.705,29.755z"/>
	<path d="M27.705,31.515c-2.449,0-4.435-0.793-4.435-1.774v1.098c0,0.98,1.985,1.774,4.435,1.774c2.451,0,4.436-0.794,4.436-1.774
		v-1.098C32.141,30.722,30.156,31.515,27.705,31.515z"/>
	<path d="M27.705,33.275c-2.449,0-4.435-0.794-4.435-1.774v1.098c0,0.98,1.985,1.774,4.435,1.774c2.451,0,4.436-0.794,4.436-1.774
		v-1.098C32.141,32.481,30.156,33.275,27.705,33.275z"/>
	<path d="M27.705,25.095c-2.449,0-4.435,0.794-4.435,1.774v0.422c0,0.98,1.985,1.774,4.435,1.774c2.451,0,4.436-0.793,4.436-1.774
		v-0.422C32.141,25.889,30.156,25.095,27.705,25.095z M27.705,28.2c-2.437,0-3.991-0.788-3.991-1.331s1.555-1.331,3.991-1.331
		c2.438,0,3.992,0.788,3.992,1.331S30.143,28.2,27.705,28.2z"/>
</g>
</svg>
