<?xml version="1.0" encoding="UTF-8" standalone="no"?>
<!-- Created with Inkscape (http://www.inkscape.org/) -->

<svg
   xmlns:dc="http://purl.org/dc/elements/1.1/"
   xmlns:cc="http://creativecommons.org/ns#"
   xmlns:rdf="http://www.w3.org/1999/02/22-rdf-syntax-ns#"
   xmlns:svg="http://www.w3.org/2000/svg"
   xmlns="http://www.w3.org/2000/svg"
   xmlns:sodipodi="http://sodipodi.sourceforge.net/DTD/sodipodi-0.dtd"
   xmlns:inkscape="http://www.inkscape.org/namespaces/inkscape"
   version="1.1"
   width="24"
   height="24"
   id="svg7384"
   inkscape:version="0.48.4 r9939"
   sodipodi:docname="contact-new-symbolic.svg">
  <sodipodi:namedview
     pagecolor="#ffffff"
     bordercolor="#666666"
     borderopacity="1"
     objecttolerance="10"
     gridtolerance="10"
     guidetolerance="10"
     inkscape:pageopacity="0"
     inkscape:pageshadow="2"
     inkscape:window-width="1024"
     inkscape:window-height="712"
     id="namedview7"
     showgrid="false"
     inkscape:zoom="14.75"
     inkscape:cx="8"
     inkscape:cy="8"
     inkscape:window-x="-4"
     inkscape:window-y="-4"
     inkscape:window-maximized="1"
     inkscape:current-layer="svg7384" />
  <title
     id="title9167">Gnome Symbolic Icon Theme</title>
  <defs
     id="defs11" />
  <metadata
     id="metadata90">
    <rdf:RDF>
      <cc:Work
         rdf:about="">
        <dc:format>image/svg+xml</dc:format>
        <dc:type
           rdf:resource="http://purl.org/dc/dcmitype/StillImage" />
        <dc:title>Gnome Symbolic Icon Theme</dc:title>
      </cc:Work>
    </rdf:RDF>
  </metadata>
  <path
     d="m 11.348517,3.8644066 c -0.613598,-0.012784 -1.25,0.34375 -1.25,0.34375 l -0.75,0.375 c 0,0 -0.77274,0.6733 -0.78125,0.90625 -0.44776,0.7826802 -0.23585,1.7375202 -0.28125,2.5937502 0.0436,0.73511 -0.4784,1.28585 -0.21875,2.0312502 -0.0379,0.71962 0.55155,1.13575 0.9375,1.65625 0.43436,0.65848 1.02705,1.52445 0.5625,2.3125 -0.85875,1.22945 -2.2903,1.89268 -3.59375,2.5625 -0.4428,0.0448 -0.28285,0.45066 -0.3125,0.75 -7.1e-4,0.238059 -0.07244,0.54897 0.28125,0.4375 l 6.75,0 0,-1.96875 a 0.96395183,0.96395183 0 0 1 0.96875,-0.96875 l 1.03125,0 0,-0.1875 c -0.175221,-0.168677 -0.347883,-0.338213 -0.5,-0.53125 -0.53138,-0.75179 0.01792,-1.6441 0.4375,-2.3125 0.32651,-0.55677 0.99025,-0.91506 1,-1.625 0.25095,-0.7202702 -0.11682,-1.3130302 -0.1875,-2.0000002 -0.0924,-0.91078 0.15912,-1.93386 -0.28125,-2.7812502 -0.59708,-0.86712 -1.69503,-1.2362001 -2.6875,-1.4687501 -0.28789,-0.0574 -0.581,-0.09155 -0.875,-0.09375 -0.0853,-0.01968 -0.162343,-0.029424 -0.25,-0.03125 z m 4.3125,10.0000004 0,2 -2,0 0,2 2,0 0,2 2,0 0,-2 2,0 0,-2 -2,0 0,-2 -2,0 z"
     inkscape:connector-curvature="0"
     id="path3107-4-3-2"
     style="color:#bebebe;fill:#5e6166;fill-opacity:1;fill-rule:nonzero;stroke:none;stroke-width:1;marker:none;visibility:visible;display:inline;overflow:visible;enable-background:accumulate"
     inkscape:export-xdpi="90"
     inkscape:export-ydpi="90"
     inkscape:export-filename="D:\_Install\Apache24\htdocs\meetright\images\icon-svg\contact-new-symbolic.png" />
  <path
     sodipodi:type="arc"
     style="fill:none;stroke:#5e6166;stroke-width:0.22826447;stroke-linecap:butt;stroke-linejoin:miter;stroke-miterlimit:4.0999999;stroke-opacity:1;stroke-dasharray:none"
     id="path2992"
     sodipodi:cx="7.762712"
     sodipodi:cy="6.3389831"
     sodipodi:rx="5.5932202"
     sodipodi:ry="5.3898306"
     d="m 13.355932,6.3389831 a 5.5932202,5.3898306 0 1 1 -11.1864402,0 5.5932202,5.3898306 0 1 1 11.1864402,0 z"
     transform="matrix(2.0676853,0,0,2.164579,-4.0508455,-1.653433)" />
</svg>
