<?xml version="1.0" standalone="no"?><!DOCTYPE svg PUBLIC "-//W3C//DTD SVG 1.1//EN" "http://www.w3.org/Graphics/SVG/1.1/DTD/svg11.dtd"><svg width="128" height="128" viewBox="0 0 128 128" version="1.1" xmlns="http://www.w3.org/2000/svg" xmlns:xlink="http://www.w3.org/1999/xlink"><defs><style type="text/css"><![CDATA[
@font-face { font-family: ifont; src: url("//at.alicdn.com/t/font_1442373896_4754455.eot?#iefix") format("embedded-opentype"), url("//at.alicdn.com/t/font_1442373896_4754455.woff") format("woff"), url("//at.alicdn.com/t/font_1442373896_4754455.ttf") format("truetype"), url("//at.alicdn.com/t/font_1442373896_4754455.svg#ifont") format("svg"); }

]]></style></defs><g class="transform-group"><g transform="scale(0.125, 0.125)"><path d="M1023.760174 24.022113c0 0-225.558176-87.646176-485.098303 71.891354l-50.067302 233.955426-61.308321-134.177955c-74.236771 117.499088-84.705194 321.971016-86.10303 369.966123-62.516846 72.087828-104.165408 94.918813-104.165408 94.918813s34.219359 11.95631 88.893586 4.092201c50.930973-7.326872 103.811344-72.839959 103.811344-72.839959s0.335644-0.887206 0.50449-1.314948c83.86199 8.441253 206.163453 8.099469 287.164279-49.768497l-164.111708-32.513508 245.524926-59.879786c29.91431-48.063669 57.824987-89.307002 90.691535-146.966213l-101.730962-25.137517 157.763117-98.198509C994.053596 90.909499 1023.760174 24.022113 1023.760174 24.022113L1023.760174 24.022113zM802.487605 569.697073c-0.048095 1.25662-0.212848 2.469238-0.491187 3.640923-0.400113 1.157359-0.788969 2.300392-1.188058 3.443425-57.951877 166.238139-219.045855 282.661731-404.161946 275.815813C169.354757 844.191798-8.09984 653.116995 0.307643 425.814082 8.714104 198.520379 199.79914 21.068851 427.08875 29.474288c4.057409 0.152473 8.091282 0.36532 12.123109 0.635473 0.853437-0.089028 1.730411-0.121773 2.616594-0.089028 1.349741 0.052189 2.664689 0.236384 3.919263 0.565888 8.608052 2.128477 14.830777 10.060123 14.491039 19.259646-0.328481 8.92016-6.720052 16.188704-15.069207 17.997909-1.524726 0.323365-3.121084 0.472767-4.756327 0.414439-2.128477-0.078795-4.157693-0.497327-6.0416-1.219781-2.876514-0.168846-5.765307-0.313132-8.656147-0.419556C218.92064 58.969043 45.083429 220.393549 37.435239 427.187359c-7.648191 206.791763 153.787572 380.629997 360.582405 388.280234 167.844729 6.206352 313.986157-98.980315 367.164311-249.406327 0.717338-2.044566 1.422396-4.082992 2.100848-6.14086 3.312442-6.000668 9.80532-9.962909 17.124006-9.692756C794.77904 550.610366 802.871345 559.327912 802.487605 569.697073zM769.568868 552.60786c0.246617-2.212388 0.898463-4.307096 1.870604-6.215562C770.836745 548.47268 770.209458 550.539758 769.568868 552.60786zM806.623809 558.514383c-0.233314 1.210571-0.590448 2.381234-1.058099 3.487428C805.921821 560.845475 806.266675 559.688115 806.623809 558.514383z" fill="#0085a7"></path></g></g></svg>