<?xml version="1.0" encoding="UTF-8" standalone="no"?>
<svg
   xmlns:dc="http://purl.org/dc/elements/1.1/"
   xmlns:cc="http://creativecommons.org/ns#"
   xmlns:rdf="http://www.w3.org/1999/02/22-rdf-syntax-ns#"
   xmlns:svg="http://www.w3.org/2000/svg"
   xmlns="http://www.w3.org/2000/svg"
   xmlns:sodipodi="http://sodipodi.sourceforge.net/DTD/sodipodi-0.dtd"
   xmlns:inkscape="http://www.inkscape.org/namespaces/inkscape"
   viewBox="0 0 20 20"
   style="display:block"
   id="svg2"
   version="1.1"
   inkscape:version="0.48.4 r9939"
   width="100%"
   height="100%"
   sodipodi:docname="favorite - 副本.svg">
  <metadata
     id="metadata11">
    <rdf:RDF>
      <cc:Work
         rdf:about="">
        <dc:format>image/svg+xml</dc:format>
        <dc:type
           rdf:resource="http://purl.org/dc/dcmitype/StillImage" />
      </cc:Work>
    </rdf:RDF>
  </metadata>
  <defs
     id="defs9" />
  <sodipodi:namedview
     pagecolor="#ffffff"
     bordercolor="#666666"
     borderopacity="1"
     objecttolerance="10"
     gridtolerance="10"
     guidetolerance="10"
     inkscape:pageopacity="0"
     inkscape:pageshadow="2"
     inkscape:window-width="675"
     inkscape:window-height="480"
     id="namedview7"
     showgrid="false"
     inkscape:zoom="9.8333333"
     inkscape:cx="2.2203391"
     inkscape:cy="12"
     inkscape:window-x="360"
     inkscape:window-y="70"
     inkscape:window-maximized="0"
     inkscape:current-layer="svg2" />
  <path
     style="fill:#cc3d55;fill-opacity:1"
     d="M 9.6733403,18.871751 C 3.0101645,12.903553 1.2456526,10.904338 0.41000417,8.3762711 0.07867107,7.3738971 0.07985787,5.7183931 0.41259417,4.7661018 1.5145591,1.6122592 4.9958273,0.22749158 8.0936435,1.7107593 8.4355305,1.8744586 9.0257003,2.2650589 9.4051333,2.57876 L 10.095012,3.1491257 10.676321,2.62815 c 0.65372,-0.5858712 1.93701,-1.245519 2.747332,-1.4122086 2.740604,-0.56376282 5.509131,1.0285908 6.336502,3.6445197 0.270965,0.856717 0.290639,2.233755 0.04515,3.159878 -0.380678,1.4361115 -1.468998,3.1212689 -3.258896,5.0460779 -0.868595,0.934064 -6.269397,6.057435 -6.441297,6.110418 -0.0373,0.0115 -0.2315967,-0.125791 -0.4317677,-0.305084 l 0,0 z M 11.834428,15.17411 C 16.7483,10.636457 18.27316,8.459529 18.087962,6.2464091 17.972293,4.8641511 17.123284,3.6955489 15.899705,3.2344232 15.062366,2.918858 13.721793,2.9845808 12.935595,3.3797412 12.27913,3.7096951 11.599114,4.3370097 11.239848,4.9440681 l -0.255783,0.432203 -0.886866,0 -0.8868657,0 -0.219345,-0.390271 C 8.6754623,4.424596 7.8321407,3.6741986 7.1824947,3.3767809 5.3228614,2.5254126 3.1935698,3.2304581 2.3723861,4.9694911 1.9966821,5.7651261 1.9485258,7.0002701 2.2573539,7.9199161 2.7166954,9.2877686 3.811748,10.770787 5.833794,12.763451 c 1.9400435,1.911853 4.16694,3.913968 4.315111,3.879548 0.0697,-0.01619 0.828187,-0.677192 1.685523,-1.468889 l 0,0 z"
     id="path3768"
     inkscape:connector-curvature="0" />
  <path
     style="fill:#cc3d55;fill-opacity:1"
     d=""
     id="path3770"
     inkscape:connector-curvature="0" />
  <path
     style="fill:#cc3d55;fill-opacity:1"
     d=""
     id="path3772"
     inkscape:connector-curvature="0" />
  <path
     style="fill:#cc3d55;fill-opacity:1"
     d=""
     id="path3774"
     inkscape:connector-curvature="0" />
  <path
     style="fill:#cc3d55;fill-opacity:1;stroke:none;display:block"
     d="M 9.258613,18.397745 C 9.009256,18.140429 7.9815081,17.185051 6.9747291,16.274684 3.5593751,13.186397 1.6114823,11.038935 0.7245512,9.384156 0.0528875,8.131007 -0.1426135,7.3878387 -0.1386315,6.1028797 -0.1346315,4.8186553 0.0795715,4.0387582 0.6792982,3.1251512 1.6619503,1.6282095 3.1158151,0.7977291 4.9408301,0.6908687 6.4612661,0.6018427 7.7948471,1.0664676 9.088334,2.1358769 l 0.689879,0.5703657 0.581309,-0.5209757 c 0.65372,-0.5858712 1.93701,-1.2455189 2.747332,-1.4122085 2.740604,-0.5637628 5.509131,1.0285907 6.336502,3.64452 0.250296,0.7913675 0.295053,2.2067563 0.09671,3.0581823 -0.192393,0.8258633 -0.910054,2.2737453 -1.605449,3.2390003 -0.829833,1.151862 -2.469046,2.878739 -4.384709,4.619201 -0.875667,0.795581 -2.075137,1.915662 -2.665489,2.48907 -0.590351,0.573408 -1.095654,1.04256 -1.122895,1.04256 -0.02724,0 -0.253547,-0.210531 -0.502906,-0.467847 z"
     id="path3756"
     inkscape:connector-curvature="0" />
</svg>
