<?xml version="1.0" encoding="UTF-8" standalone="no"?>
<!-- Generator: Adobe Illustrator 17.0.0, SVG Export Plug-In . SVG Version: 6.00 Build 0)  -->

<svg
   xmlns:dc="http://purl.org/dc/elements/1.1/"
   xmlns:cc="http://creativecommons.org/ns#"
   xmlns:rdf="http://www.w3.org/1999/02/22-rdf-syntax-ns#"
   xmlns:svg="http://www.w3.org/2000/svg"
   xmlns="http://www.w3.org/2000/svg"
   xmlns:sodipodi="http://sodipodi.sourceforge.net/DTD/sodipodi-0.dtd"
   xmlns:inkscape="http://www.inkscape.org/namespaces/inkscape"
   version="1.1"
   id="Capa_1"
   x="0px"
   y="0px"
   width="20"
   height="20"
   viewBox="0 0 20.000001 20"
   enable-background="new 0 0 37.509 26.43"
   xml:space="preserve"
   inkscape:version="0.48.4 r9939"
   sodipodi:docname="Handshake.svg"><metadata
   id="metadata9"><rdf:RDF><cc:Work
       rdf:about=""><dc:format>image/svg+xml</dc:format><dc:type
         rdf:resource="http://purl.org/dc/dcmitype/StillImage" /></cc:Work></rdf:RDF></metadata><defs
   id="defs7" /><sodipodi:namedview
   pagecolor="#ffffff"
   bordercolor="#666666"
   borderopacity="1"
   objecttolerance="10"
   gridtolerance="10"
   guidetolerance="10"
   inkscape:pageopacity="0"
   inkscape:pageshadow="2"
   inkscape:window-width="1280"
   inkscape:window-height="747"
   id="namedview5"
   showgrid="false"
   inkscape:zoom="8.929247"
   inkscape:cx="18.754499"
   inkscape:cy="13.215"
   inkscape:window-x="-8"
   inkscape:window-y="-8"
   inkscape:window-maximized="1"
   inkscape:current-layer="Capa_1" />
<path
   d="m 15.444932,2.2040211 c 0,-0.1180425 0.06914,-0.213238 0.15265,-0.213238 0.08518,0 0.154311,0.094434 0.154311,0.213238 0,0.1165194 -0.06858,0.2094303 -0.154311,0.2094303 -0.08352,0 -0.15265,-0.092911 -0.15265,-0.2094303 z M 4.6188817,2.508647 c 0.085175,0 0.1548633,-0.095957 0.1548633,-0.2109534 0,-0.117281 -0.069689,-0.2147612 -0.1548633,-0.2147612 -0.084622,0 -0.1537571,0.096719 -0.1537571,0.2147612 0,0.1149962 0.069689,0.2109534 0.1537571,0.2109534 z M 19.845261,6.5076227 c 0,0.088342 -0.02544,0.1705905 -0.06969,0.2322772 l -0.953515,1.3121758 c -0.04425,0.061687 -0.104538,0.096719 -0.167585,0.096719 -0.01382,0 -0.02655,-0.00305 -0.04037,-0.00533 0.05531,0.1066191 0.06305,0.246747 0.01101,0.3625048 l -1.778715,3.9228175 c -0.10564,0.269594 -0.309173,0.77375 -0.40707,0.908547 l -4.144251,5.704118 c -0.190261,0.263502 -0.438043,0.41353 -0.680293,0.41353 -0.189154,0 -0.363375,-0.09443 -0.488925,-0.267309 l -0.06028,-0.08377 -0.0039,0.0046 c -0.243357,0.337373 -0.656511,0.394491 -0.985042,0.150028 -0.3290841,0.244463 -0.7416838,0.187345 -0.9866997,-0.151551 l -0.00224,-0.003 -0.061942,0.08377 c -0.1249971,0.172875 -0.299218,0.267309 -0.4883728,0.267309 -0.2433561,0 -0.4900313,-0.15079 -0.6813984,-0.41353 L 3.7134678,13.33581 C 3.6144662,13.202537 3.4109313,12.698381 3.2975492,12.41051 L 1.5282362,8.5067298 c -0.05199,-0.1157579 -0.044247,-0.2558857 0.010505,-0.3640279 -0.01438,0.00381 -0.03042,0.00609 -0.0448,0.00609 -0.06471,0 -0.1249969,-0.035032 -0.1692436,-0.096719 L 0.37339481,6.741423 c -0.0934706,-0.1279428 -0.0934706,-0.3366115 0,-0.4645544 L 4.5005014,0.59331199 c 0.093471,-0.12870442 0.2450158,-0.12870442 0.3379339,0 L 5.7919506,1.9032031 c 0.0448,0.062448 0.070242,0.1462204 0.070242,0.2322772 0,0.088342 -0.025442,0.1721136 -0.070242,0.2322772 l -0.4878194,0.6717 c 0.011615,-0.00152 0.022677,-0.00457 0.035398,-0.00457 0.063052,0 0.1244438,0.035032 0.1681373,0.095957 l 0.8611505,1.185756 c 0.01825,0.00305 0.038716,0.00609 0.059732,0.00838 0.063607,0.00685 0.1316336,0.018278 0.16869,0.019801 0.00884,-0.00152 0.016592,-0.00152 0.024891,-0.00152 l 0.032632,-0.00152 c 0.080197,0 0.1592882,0.00609 0.2356135,0.019039 l 0.529854,0.094434 c 0.02655,0.00152 0.051433,0.00457 0.075773,0.00685 0.017143,0.00228 0.033183,0.00762 0.049225,0.015231 L 10.07669,4.9228067 12.610365,4.4772914 c 0.01494,-0.00609 0.03097,-0.012185 0.0459,-0.015231 0.0271,-0.00305 0.05419,-0.00609 0.08186,-0.00685 l 0.522106,-0.095196 c 0.07909,-0.012947 0.157076,-0.019039 0.237274,-0.019039 l 0.03428,0.00152 c 0.0083,0 0.0166,0 0.02434,0.00152 0.03706,-0.00152 0.103981,-0.010662 0.168137,-0.019801 0.02213,-0.00305 0.04259,-0.00609 0.06084,-0.00838 l 0.859491,-1.1849945 c 0.04425,-0.060925 0.104538,-0.095957 0.168137,-0.095957 0.01055,0 0.01991,0.00305 0.03041,0.00457 l -0.48671,-0.6717 c -0.04481,-0.060164 -0.07024,-0.1439357 -0.07024,-0.2322772 0,-0.086057 0.02544,-0.1698289 0.07024,-0.2322772 l 0.953515,-1.30988651 c 0.09292,-0.12870442 0.24391,-0.12870442 0.337381,0 l 4.127658,5.68355661 c 0.04535,0.060164 0.0708,0.1439357 0.07024,0.2307541 z M 15.259095,2.2040211 c 0,0.2543626 0.150992,0.4630313 0.337935,0.4630313 0.184176,0 0.334061,-0.2079071 0.334061,-0.4630313 0,-0.2543625 -0.149332,-0.4615081 -0.334061,-0.4615081 -0.187496,7.616e-4 -0.337935,0.2071456 -0.337935,0.4615081 z M 4.274864,2.2931241 c 0,0.253601 0.1515447,0.4630313 0.3379339,0.4630313 0.1841767,0 0.3346152,-0.2086687 0.3346152,-0.4630313 0,-0.2543626 -0.1498855,-0.4615081 -0.3346152,-0.4615081 -0.1869423,7.616e-4 -0.338487,0.2071456 -0.3379339,0.4615082 z m 7.443393,16.1543079 c -0.03983,-0.02513 -0.07743,-0.05559 -0.115599,-0.0891 -0.0022,0.0046 -0.0039,0.0069 -0.0054,0.01066 l 0.0625,0.08682 c 10e-4,0 0.0271,0.0069 0.05862,-0.0084 z m -1.440781,-5.378169 c 0.04978,-0.11652 0.09679,-0.231516 0.141036,-0.348797 0.03595,-0.09291 0.10121,-0.155359 0.17588,-0.17059 0.07577,-0.01523 0.150992,0.01828 0.205195,0.09139 l 1.704049,2.347142 c 0.05476,0.07539 0.152651,0.07539 0.207958,0 l 0.572442,-0.791266 c 0.05808,-0.07844 0.05808,-0.207146 5.52e-4,-0.28711 L 9.7631078,9.064195 C 9.3151107,9.087042 8.7266304,9.1228355 8.649752,9.128928 8.1564018,9.2043229 7.7111696,8.674274 7.6425877,7.955357 L 7.5286519,6.7246686 C 7.4882768,6.2959077 7.591151,5.8892322 7.7814112,5.6074533 L 6.8505721,5.4429554 C 6.7687167,5.4361013 6.664183,5.4239162 6.5574382,5.4094465 6.4495863,5.3942152 6.3411827,5.3805071 6.2388622,5.3713683 L 6.134883,5.3629883 C 6.075701,5.3591783 6.0198412,5.3241483 5.9778071,5.2655083 L 5.3373367,4.3668646 2.3766823,8.4435199 c 0.7112651,1.6594491 1.7134518,3.9890751 1.8367893,4.2342991 l 4.1348499,5.691933 c 0.061392,0.08682 0.1404829,0.08834 0.1465669,0.08225 l 0.4435725,-0.612299 c 0.00332,-0.0053 0.00665,-0.03046 -0.00167,-0.07159 L 7.927414,16.379023 C 7.85828,16.284593 7.838368,16.139891 7.87598,16.016518 7.915805,15.892383 8.0059545,15.813942 8.1016378,15.816988 l 0.054199,7.61e-4 c 0.080197,0 0.159841,-0.0046 0.2428035,-0.01599 0.073008,-0.01066 0.1421427,0.02437 0.1930264,0.09367 l 1.7637823,2.429391 c 0.01439,0.0099 0.02489,0.01828 0.0354,0.02742 0.02821,0.02742 0.06139,0.04341 0.09016,0.04341 0.03152,0 0.04259,-0.01675 0.04702,-0.02285 l 0.498881,-0.686932 c 0.01055,-0.01371 0.0166,-0.03427 0.01825,-0.05635 l -1.4429954,-1.98769 c -0.049224,-0.06702 -0.074113,-0.159167 -0.06803,-0.255886 0.005,-0.09367 0.040376,-0.182775 0.095683,-0.239131 0.059736,-0.06093 0.1194665,-0.12642 0.1758819,-0.191914 0.04148,-0.04874 0.09402,-0.07616 0.149332,-0.07768 0.1034295,0.003 0.1471195,0.05331 0.2881565,0.239893 0.04812,0.06626 0.105638,0.143936 0.176434,0.241416 0.251099,0.341181 0.621111,0.854476 0.935817,1.291614 l 0.600094,0.836959 c 0.03374,0.04493 0.07687,0.07311 0.117807,0.07311 0.0166,0 0.04037,-0.0061 0.05531,-0.02665 l 0.498883,-0.686932 c 0.03264,-0.04341 0.02378,-0.15612 -0.03485,-0.237608 l -2.278149,-3.13765 c -0.07909,-0.108142 -0.09292,-0.273402 -0.03706,-0.402106 z m 7.499255,-4.6249815 -2.961208,-4.0766554 -0.64047,0.8986463 c -0.04204,0.05864 -0.09734,0.093672 -0.157076,0.09748 l -0.104526,0.00838 c -0.10121,0.00914 -0.210172,0.022847 -0.316918,0.038078 -0.107297,0.01447 -0.212384,0.027416 -0.310279,0.035032 L 8.3992053,6.3080928 c -0.040376,0.00685 -0.067476,0.041886 -0.084068,0.070064 -0.032076,0.056356 -0.045908,0.1355585 -0.037609,0.2132381 l 0.1139344,1.2306884 c 0.012167,0.1287044 0.081857,0.2330387 0.1559695,0.2330387 0.00551,-0.00152 0.0271,-0.00305 0.032633,-0.00305 L 10.623707,7.9294601 c 0.102325,-0.00609 0.198004,0.079964 0.233955,0.2147612 0.03594,0.1332738 0.0066,0.2840636 -0.07301,0.3731667 -0.01,0.010662 -0.02378,0.028178 -0.03761,0.044171 -0.02932,0.03884 -0.06415,0.085295 -0.09955,0.1370816 l 2.848379,3.9228194 c 0.678081,0.833152 0.779295,1.497236 0.341806,2.278601 -0.0072,0.01219 -0.01272,0.02132 -0.02102,0.03122 l -0.572996,0.789743 c -0.03097,0.04265 -0.05862,0.08301 -0.08407,0.118042 -0.02599,0.03808 -0.05088,0.07387 -0.07799,0.109666 l 0.148779,0.206384 c 0.03097,0.04341 0.05918,0.08834 0.08461,0.134797 l 2.62272,-3.612101 c 0.124445,-0.245224 1.127184,-2.572566 1.839002,-4.2335379 z"
   id="path3"
   style="fill:#0085a7;fill-opacity:1"
   inkscape:connector-curvature="0" />
</svg>