<?xml version="1.0" standalone="no"?><!DOCTYPE svg PUBLIC "-//W3C//DTD SVG 1.1//EN" "http://www.w3.org/Graphics/SVG/1.1/DTD/svg11.dtd"><svg width="200" height="200" viewBox="0 0 200 200" version="1.1" xmlns="http://www.w3.org/2000/svg" xmlns:xlink="http://www.w3.org/1999/xlink"><defs><style type="text/css"><![CDATA[
@font-face { font-family: ifont; src: url("//at.alicdn.com/t/font_1442373896_4754455.eot?#iefix") format("embedded-opentype"), url("//at.alicdn.com/t/font_1442373896_4754455.woff") format("woff"), url("//at.alicdn.com/t/font_1442373896_4754455.ttf") format("truetype"), url("//at.alicdn.com/t/font_1442373896_4754455.svg#ifont") format("svg"); }

]]></style></defs><g class="transform-group"><g transform="scale(0.1953125, 0.1953125)"><path d="M928.681586 412.480402 662.849148 412.480402C765.834684 31.118741 591.852164 11.627828 591.852164 11.627828c-73.764004 0-58.44818 58.458413-64.023152 68.199265 0 186.509834-197.635219 332.654332-197.635219 332.654332L330.193793 941.383374c0 52.189639 70.978565 70.988798 98.815563 70.988798l399.458831 0c37.58399 0 68.199265-98.821703 68.199265-98.821703 98.824773-336.829422 98.824773-437.041798 98.824773-437.041798C995.492224 406.916686 928.681586 412.480402 928.681586 412.480402L928.681586 412.480402 928.681586 412.480402zM221.104235 412.655388 61.909513 412.655388c-32.882921 0-33.403784 32.363082-33.403784 32.363082l32.884968 533.423939c0 33.92874 33.920554 33.92874 33.920554 33.92874L233.102501 1012.371148c28.703739 0 28.453029-22.450315 28.453029-22.450315l0-536.816199C261.555529 412.131455 221.104235 412.655388 221.104235 412.655388L221.104235 412.655388 221.104235 412.655388zM221.104235 412.655388" fill="#eb4f38"></path></g></g></svg>