<?xml version="1.0" encoding="UTF-8" standalone="no"?>
<!-- Generator: Adobe Illustrator 16.0.4, SVG Export Plug-In . SVG Version: 6.00 Build 0)  -->

<svg
   xmlns:dc="http://purl.org/dc/elements/1.1/"
   xmlns:cc="http://creativecommons.org/ns#"
   xmlns:rdf="http://www.w3.org/1999/02/22-rdf-syntax-ns#"
   xmlns:svg="http://www.w3.org/2000/svg"
   xmlns="http://www.w3.org/2000/svg"
   xmlns:sodipodi="http://sodipodi.sourceforge.net/DTD/sodipodi-0.dtd"
   xmlns:inkscape="http://www.inkscape.org/namespaces/inkscape"
   version="1.1"
   id="Capa_1"
   x="0px"
   y="0px"
   width="150"
   height="150"
   viewBox="0 0 150 150"
   enable-background="new 0 0 216 146"
   xml:space="preserve"
   inkscape:version="0.48.4 r9939"
   sodipodi:docname="Knife&amp;Fork.svg"><metadata
   id="metadata13"><rdf:RDF><cc:Work
       rdf:about=""><dc:format>image/svg+xml</dc:format><dc:type
         rdf:resource="http://purl.org/dc/dcmitype/StillImage" /></cc:Work></rdf:RDF></metadata><defs
   id="defs11" /><sodipodi:namedview
   pagecolor="#ffffff"
   bordercolor="#666666"
   borderopacity="1"
   objecttolerance="10"
   gridtolerance="10"
   guidetolerance="10"
   inkscape:pageopacity="0"
   inkscape:pageshadow="2"
   inkscape:window-width="675"
   inkscape:window-height="480"
   id="namedview9"
   showgrid="false"
   fit-margin-right="0"
   inkscape:zoom="1.6164384"
   inkscape:cx="108"
   inkscape:cy="73"
   inkscape:window-x="0"
   inkscape:window-y="0"
   inkscape:window-maximized="0"
   inkscape:current-layer="Capa_1" />
<g
   id="g3"
   transform="translate(-34.025424,2.7627119)"
   style="fill:#0085af;fill-opacity:0.94117647">
	<path
   d="m 97.574,0.001 c -1.413,0 -2.635,0.516 -3.667,1.548 -1.032,1.032 -1.548,2.254 -1.548,3.666 v 33.893 c 0,1.412 -0.516,2.634 -1.548,3.666 -1.033,1.032 -2.254,1.548 -3.667,1.548 -1.413,0 -2.635,-0.516 -3.667,-1.548 -1.032,-1.032 -1.548,-2.254 -1.548,-3.666 V 5.215 C 81.929,3.803 81.413,2.581 80.381,1.549 79.348,0.517 78.126,0.001 76.714,0.001 75.302,0.001 74.08,0.517 73.048,1.549 72.016,2.581 71.5,3.803 71.5,5.215 v 33.893 c 0,1.412 -0.516,2.634 -1.548,3.666 -1.032,1.032 -2.254,1.548 -3.666,1.548 -1.413,0 -2.635,-0.516 -3.667,-1.548 -1.032,-1.032 -1.548,-2.254 -1.548,-3.666 V 5.215 c 0,-1.412 -0.516,-2.634 -1.548,-3.666 -1.032,-1.032 -2.253,-1.548 -3.666,-1.548 -1.413,0 -2.635,0.516 -3.667,1.548 -1.032,1.032 -1.548,2.254 -1.548,3.666 v 52.143 c 0,3.313 0.963,6.327 2.892,9.043 1.929,2.716 4.441,4.617 7.537,5.703 v 63.468 c 0,2.824 1.032,5.267 3.096,7.332 2.064,2.065 4.509,3.096 7.333,3.096 h 10.428 c 2.825,0 5.269,-1.033 7.333,-3.098 2.064,-2.063 3.096,-4.508 3.096,-7.332 V 72.103 c 3.096,-1.086 5.607,-2.988 7.536,-5.703 1.929,-2.715 2.893,-5.73 2.893,-9.043 V 5.214 c 0,-1.412 -0.516,-2.634 -1.546,-3.665 -1.032,-1.032 -2.253,-1.548 -3.666,-1.548 z"
   id="path5"
   inkscape:connector-curvature="0"
   style="fill:#0085af;fill-opacity:0.94117647" />
	<path
   d="M 163.809,1.548 C 162.777,0.516 161.555,0 160.143,0 h -20.857 c -7.17,0 -13.307,2.554 -18.412,7.659 -5.105,5.105 -7.659,11.243 -7.659,18.413 V 91.25 c 0,0.707 0.259,1.317 0.774,1.834 0.516,0.516 1.127,0.773 1.832,0.773 h 18.25 v 41.715 c 0,2.824 1.033,5.267 3.097,7.332 2.063,2.064 4.509,3.096 7.333,3.096 h 10.427 c 2.825,0 5.269,-1.031 7.333,-3.096 2.064,-2.065 3.098,-4.508 3.098,-7.332 V 5.214 c -0.002,-1.412 -0.518,-2.634 -1.55,-3.666 z"
   id="path7"
   inkscape:connector-curvature="0"
   style="fill:#0085af;fill-opacity:0.94117647" />
</g>
</svg>