<?xml version="1.0" standalone="no"?><!DOCTYPE svg PUBLIC "-//W3C//DTD SVG 1.1//EN" "http://www.w3.org/Graphics/SVG/1.1/DTD/svg11.dtd"><svg width="128" height="128" viewBox="0 0 128 128" version="1.1" xmlns="http://www.w3.org/2000/svg" xmlns:xlink="http://www.w3.org/1999/xlink"><defs><style type="text/css"><![CDATA[
@font-face { font-family: ifont; src: url("//at.alicdn.com/t/font_1442373896_4754455.eot?#iefix") format("embedded-opentype"), url("//at.alicdn.com/t/font_1442373896_4754455.woff") format("woff"), url("//at.alicdn.com/t/font_1442373896_4754455.ttf") format("truetype"), url("//at.alicdn.com/t/font_1442373896_4754455.svg#ifont") format("svg"); }

]]></style></defs><g class="transform-group"><g transform="scale(0.125, 0.125)"><path d="M378.6 404.2c38.4-38.4 71.8-62 3.8-146.8-68-84.8-113.4-19.6-150.6 17.6-43 43-2.2 203 156 361.4 158.2 158.2 318.4 199 361.4 156 37.2-37.2 102.2-82.6 17.6-150.6-84.6-68-108.4-34.6-146.8 3.8-26.8 26.8-94.8-29.2-153.4-87.8C407.8 498.8 351.8 431 378.6 404.2L378.6 404.2zM512 998.4c268.6 0 486.4-217.8 486.4-486.4 0-268.6-217.8-486.4-486.4-486.4C243.4 25.6 25.6 243.4 25.6 512 25.6 780.6 243.4 998.4 512 998.4L512 998.4zM512 1024C229.2 1024 0 794.8 0 512 0 229.2 229.2 0 512 0c282.8 0 512 229.2 512 512C1024 794.8 794.8 1024 512 1024L512 1024zM512 1024" fill="#272636"></path></g></g></svg>