<?xml version="1.0" standalone="no"?><!DOCTYPE svg PUBLIC "-//W3C//DTD SVG 1.1//EN" "http://www.w3.org/Graphics/SVG/1.1/DTD/svg11.dtd"><svg width="200" height="200" viewBox="0 0 200 200" version="1.1" xmlns="http://www.w3.org/2000/svg" xmlns:xlink="http://www.w3.org/1999/xlink"><defs><style type="text/css"><![CDATA[
@font-face { font-family: ifont; src: url("//at.alicdn.com/t/font_1442373896_4754455.eot?#iefix") format("embedded-opentype"), url("//at.alicdn.com/t/font_1442373896_4754455.woff") format("woff"), url("//at.alicdn.com/t/font_1442373896_4754455.ttf") format("truetype"), url("//at.alicdn.com/t/font_1442373896_4754455.svg#ifont") format("svg"); }

]]></style></defs><g class="transform-group"><g transform="scale(0.1953125, 0.1953125)"><path d="M516.075317 770.131035c4.367471 0 8.807596-0.272199 13.279445-0.803295 42.890856-5.13802 79.310324-35.126009 92.749404-76.43381 1.017166-3.090385-0.448208-6.401804-3.405563-7.756661-2.923586-1.36509-6.465249-0.186242-8.118911 2.585895-0.157589 0.264013-17.196661 27.788903-83.535555 36.751019-9.933233 1.325182-19.59222 2.025123-28.754904 2.025123-46.475498-0.025583-67.189262-17.547655-67.38062-17.706267-2.338255-2.080382-5.906523-2.136663-8.306176-0.107447-2.421142 2.028193-2.975774 5.544273-1.326205 8.240685C441.510064 749.732449 477.812875 770.131035 516.075317 770.131035L516.075317 770.131035zM516.075317 770.131035M872.777345 358.994234c-0.585331 0-1.11745 0.10847-1.675152 0.10847C832.23293 190.82307 683.710268 65.290005 505.63657 65.290005c-182.968172 0-334.899466 132.464941-368.57545 307.709197-32.742728 5.891174-57.662281 34.670637-57.662281 69.474304l0 139.293463c0 39.041178 31.30703 70.698179 69.962421 70.698179 21.805632 0 41.052998-10.29753 53.855582-26.110681 30.93557 81.818447 93.915973 147.798161 173.615153 182.601828 0.192382-0.409322 1.701758-3.351328 3.51608-5.690606 1.25662-1.612731 2.661619-2.948145 3.869121-2.948145 1.24741 0 2.394537 0.453325 3.37691 1.151219-18.449187-13.732769-85.075631-84.336804-99.509365-182.850491-6.332219-43.3626 26.146497-85.925998 63.967894-92.967368 60.725036-11.307533 121.134895-24.189935 181.859931-35.281551 38.600133-7.042393 64.98199-28.217668 81.115436-63.47466 3.777023-8.240685 9.235338-24.905226 11.740392-48.937572 0.667196-3.574409 3.593851-6.316869 7.349385-6.316869 2.50403 0 4.632507 1.278109 6.0416 3.120061l1.677199-1.040702c23.936155 34.748409 71.399143 111.688755 78.213339 192.815447 7.830339 92.753497 3.463891 156.278299-67.534116 221.277686-0.083911 0.079818-0.192382 0.184195-0.291642 0.261966-0.98749 1.065262-1.570775 2.451842-1.570775 3.979638 0 1.998517 1.063215 3.707438 2.604314 4.747117 0.583285 0.23536 1.172709 0.557702 1.759063 0.801249 0.479931 0.106424 0.933255 0.261966 1.413186 0.261966s0.907673-0.155543 1.329275-0.261966c1.013073-0.532119 1.968841-1.151219 2.954285-1.683339 71.801303-39.548738 126.879736-105.610316 152.330384-185.060833 10.304693 15.307637 26.431999 26.322505 45.173852 30.163997C828.162218 777.730107 706.238354 863.285668 555.185057 876.277564c-9.052167-22.458501-31.334659-38.405705-57.504692-38.405705-34.180474 0-61.893652 27.071565-61.893652 60.435441 0 33.364899 27.710109 60.402695 61.893652 60.402695 27.557636 0 50.633191-17.704221 58.648748-42.027186 174.84926-14.2127 315.00844-118.143771 344.272951-279.630698 25.846668-10.807137 43.998073-36.165688 43.998073-65.767889L944.600137 430.341189C944.599114 390.945947 912.440693 358.994234 872.777345 358.994234L872.777345 358.994234zM808.275285 399.481344c-45.604664-123.534548-163.779134-211.779358-302.794257-211.779358-138.437979 0-256.183683 87.49882-302.208926 210.233142-2.290159-2.802836-4.977361-5.200442-7.612375-7.627724 26.056446-149.563364 154.771993-263.278265 309.976844-263.278265 154.458861 0 282.780435 112.598474 309.692365 261.121136C812.666292 391.722636 810.216497 395.45361 808.275285 399.481344L808.275285 399.481344zM808.275285 399.481344M376.841206 808.956296c0 0 0 0-0.008186 0C376.806413 809.026904 376.806413 809.03509 376.841206 808.956296L376.841206 808.956296zM376.841206 808.956296" fill="#eb4f38"></path></g></g></svg>