<?xml version="1.0" encoding="UTF-8" standalone="no"?>
<!-- Generator: Adobe Illustrator 16.0.0, SVG Export Plug-In . SVG Version: 6.00 Build 0)  -->

<svg
   xmlns:dc="http://purl.org/dc/elements/1.1/"
   xmlns:cc="http://creativecommons.org/ns#"
   xmlns:rdf="http://www.w3.org/1999/02/22-rdf-syntax-ns#"
   xmlns:svg="http://www.w3.org/2000/svg"
   xmlns="http://www.w3.org/2000/svg"
   xmlns:sodipodi="http://sodipodi.sourceforge.net/DTD/sodipodi-0.dtd"
   xmlns:inkscape="http://www.inkscape.org/namespaces/inkscape"
   version="1.1"
   id="Layer_11"
   x="0px"
   y="0px"
   width="92"
   height="92"
   viewBox="0 0 92 92"
   enable-background="new 0 0 100 100"
   xml:space="preserve"
   inkscape:version="0.48.4 r9939"
   sodipodi:docname="users5.svg"><metadata
   id="metadata9"><rdf:RDF><cc:Work
       rdf:about=""><dc:format>image/svg+xml</dc:format><dc:type
         rdf:resource="http://purl.org/dc/dcmitype/StillImage" /></cc:Work></rdf:RDF></metadata><defs
   id="defs7" /><sodipodi:namedview
   pagecolor="#ffffff"
   bordercolor="#666666"
   borderopacity="1"
   objecttolerance="10"
   gridtolerance="10"
   guidetolerance="10"
   inkscape:pageopacity="0"
   inkscape:pageshadow="2"
   inkscape:window-width="1280"
   inkscape:window-height="747"
   id="namedview5"
   showgrid="false"
   inkscape:zoom="2.36"
   inkscape:cx="-15.466102"
   inkscape:cy="33.050847"
   inkscape:window-x="-8"
   inkscape:window-y="-8"
   inkscape:window-maximized="1"
   inkscape:current-layer="Layer_11"
   showborder="true" />
<path
   d="m 25.785713,17.000289 c 0,-6.27 5.083,-11.3530009 11.354,-11.3530009 6.27,0 11.353,5.0830009 11.353,11.3530009 0,6.27 -5.083,11.353 -11.353,11.353 -6.271,0 -11.354,-5.083 -11.354,-11.353 z m 16.81,19.088 c 0.114,-2.472 0.965,-4.76 2.334,-6.652 -0.961,-0.201 -1.954,-0.308 -2.973,-0.308 h -9.633 c -1.016,0 -2.008,0.106 -2.964,0.305 1.457,2.021 2.329,4.489 2.343,7.161 1.771,-0.974 3.803,-1.529 5.962,-1.529 1.751,0 3.418,0.365 4.931,1.023 z m 1.922,1.019 c 3.298,2.068 5.61,5.566 6.033,9.628 1.344,0.628 2.837,0.99 4.419,0.99 5.778,0 10.46,-4.683 10.46,-10.46 0,-5.778 -4.682,-10.46 -10.46,-10.46 -5.724,0 -10.365,4.599 -10.452,10.302 z m -6.853,21.418 c 5.776,0 10.46,-4.684 10.46,-10.46 0,-5.776 -4.684,-10.46 -10.46,-10.46 -5.777,0 -10.462,4.684 -10.462,10.46 0,5.776 4.685,10.46 10.462,10.46 z m 4.437,0.712 h -8.875 c -7.385,0 -13.394,6.009 -13.394,13.394 v 10.856 l 0.028,0.17 0.747,0.233 c 7.048,2.201 13.171,2.937 18.211,2.937 9.843,0 15.549,-2.807 15.901,-2.986 l 0.699,-0.354 h 0.074 v -10.856 c 10e-4,-7.385 -6.006,-13.394 -13.391,-13.394 z m 17.307,-10.798 h -8.808 c -0.096,3.524 -1.599,6.698 -3.978,8.979 6.564,1.953 11.366,8.04 11.366,15.23 v 3.345 c 8.696,-0.32 13.708,-2.784 14.038,-2.95 l 0.699,-0.355 h 0.074 v -10.857 c 0.001,-7.384 -6.007,-13.392 -13.391,-13.392 z m 2.355,-21.857 c 3.298,2.068 5.61,5.566 6.032,9.628 1.344,0.628 2.837,0.99 4.419,0.99 5.779,0 10.461,-4.683 10.461,-10.459 0,-5.778 -4.682,-10.46 -10.461,-10.46 -5.723,-0.001 -10.364,4.599 -10.451,10.301 z m 14.89,11.332 h -8.807 c -0.096,3.524 -1.6,6.698 -3.978,8.979 6.564,1.952 11.366,8.04 11.366,15.23 v 3.345 c 8.695,-0.32 13.708,-2.783 14.038,-2.95 l 0.698,-0.354 h 0.075 v -10.858 c 10e-4,-7.384 -6.007,-13.392 -13.392,-13.392 z m -57.343,9.811 c 2.046,0 3.949,-0.598 5.563,-1.615 0.513,-3.344 2.306,-6.267 4.866,-8.257 0.011,-0.196 0.029,-0.39 0.029,-0.588 0,-5.778 -4.684,-10.46 -10.458,-10.46 -5.779,0 -10.4610014,4.682 -10.4610014,10.46 0,5.778 4.6820014,10.46 10.4610014,10.46 z m 9.394,9.693 c -2.368,-2.27 -3.867,-5.426 -3.977,-8.93 -0.326,-0.024 -0.649,-0.049 -0.982,-0.049 h -8.874 c -7.3860011,0 -13.3940012,6.008 -13.3940012,13.393 v 10.856 l 0.027,0.169 0.7480001,0.234 c 5.653,1.767 10.7000011,2.579 15.0830011,2.834 v -3.278 c 0.001,-7.189 4.803,-13.277 11.369,-15.229 z"
   id="path3"
   style="fill:#0085a7;fill-opacity:1"
   inkscape:connector-curvature="0" />
</svg>