<?xml version="1.0" standalone="no"?><!DOCTYPE svg PUBLIC "-//W3C//DTD SVG 1.1//EN" "http://www.w3.org/Graphics/SVG/1.1/DTD/svg11.dtd"><svg width="128" height="128" viewBox="0 0 128 128" version="1.1" xmlns="http://www.w3.org/2000/svg" xmlns:xlink="http://www.w3.org/1999/xlink"><defs><style type="text/css"><![CDATA[
@font-face { font-family: ifont; src: url("//at.alicdn.com/t/font_1442373896_4754455.eot?#iefix") format("embedded-opentype"), url("//at.alicdn.com/t/font_1442373896_4754455.woff") format("woff"), url("//at.alicdn.com/t/font_1442373896_4754455.ttf") format("truetype"), url("//at.alicdn.com/t/font_1442373896_4754455.svg#ifont") format("svg"); }

]]></style></defs><g class="transform-group"><g transform="scale(0.125, 0.125)"><path d="M709.162667 741.546667c-58.794667 31.488-125.952 49.493333-197.248 49.493333-71.253333 0-138.368-17.92-197.162667-49.493333C187.776 774.912 88.277333 853.973333 42.666667 1024l938.666667 0C935.722667 853.930667 836.224 774.869333 709.162667 741.546667zM512 682.666667c188.501333 0 341.333333-152.832 341.333333-341.333333s-152.832-341.333333-341.333333-341.333333S170.666667 152.832 170.666667 341.333333 323.498667 682.666667 512 682.666667zM740.224 455.125333C698.197333 539.093333 612.309333 597.333333 512 597.333333s-186.197333-58.24-228.224-142.208L740.224 455.125333z" fill="#0085a7"></path></g></g></svg>