<?xml version="1.0" standalone="no"?><!DOCTYPE svg PUBLIC "-//W3C//DTD SVG 1.1//EN" "http://www.w3.org/Graphics/SVG/1.1/DTD/svg11.dtd"><svg width="128" height="128" viewBox="0 0 128 128" version="1.1" xmlns="http://www.w3.org/2000/svg" xmlns:xlink="http://www.w3.org/1999/xlink"><defs><style type="text/css"><![CDATA[
@font-face { font-family: ifont; src: url("//at.alicdn.com/t/font_1442373896_4754455.eot?#iefix") format("embedded-opentype"), url("//at.alicdn.com/t/font_1442373896_4754455.woff") format("woff"), url("//at.alicdn.com/t/font_1442373896_4754455.ttf") format("truetype"), url("//at.alicdn.com/t/font_1442373896_4754455.svg#ifont") format("svg"); }

]]></style></defs><g class="transform-group"><g transform="scale(0.125, 0.125)"><path d="M783.217075 615.618962l0-45.743834-78.418001 19.605523L783.217075 615.618962zM704.799074 863.943654 157.918659 863.943654 157.918659 238.644215l245.057275 0 19.605523-78.418001L197.127659 160.226215c-64.965617 0-117.628024 50.614771-117.628024 115.580388l0 548.928051c0 64.965617 52.662407 117.628024 117.628024 117.628024L665.590074 942.362678c64.965617 0 117.628024-52.662407 117.628024-117.628024L783.218098 655.989415c-22.943548 13.418614-49.846268 25.928532-78.418001 37.106106L704.799074 863.943654 704.799074 863.943654 704.799074 863.943654zM974.36351 61.574381c0 0-236.042971-68.220754-484.077044 116.607788l-29.457916 241.132896-74.147744-130.146129c-64.443731 125.547391-56.523341 333.273433-53.591569 381.943922-56.700373 78.559217-96.752578 105.417935-96.752578 105.417935s35.688827 8.994861 90.266863-3.904936c50.846038-12.021801 98.396008-83.064834 98.396008-83.064834s0.258896-0.926092 0.387833-1.372254c85.577051 0.948605 209.230302-10.465352 285.907659-76.320223l-168.907944-18.028609 242.877633-82.778308c25.904996-51.313689 50.395784-95.55224 78.418001-156.837024l-105.154945-16.213263 150.661372-113.589035C950.374142 131.908262 974.36351 61.574381 974.36351 61.574381z" fill="#cc3d55"></path></g></g></svg>