<?xml version="1.0" standalone="no"?><!DOCTYPE svg PUBLIC "-//W3C//DTD SVG 1.1//EN" "http://www.w3.org/Graphics/SVG/1.1/DTD/svg11.dtd"><svg width="128" height="128" viewBox="0 0 128 128" version="1.1" xmlns="http://www.w3.org/2000/svg" xmlns:xlink="http://www.w3.org/1999/xlink"><defs><style type="text/css"><![CDATA[
@font-face { font-family: ifont; src: url("//at.alicdn.com/t/font_1442373896_4754455.eot?#iefix") format("embedded-opentype"), url("//at.alicdn.com/t/font_1442373896_4754455.woff") format("woff"), url("//at.alicdn.com/t/font_1442373896_4754455.ttf") format("truetype"), url("//at.alicdn.com/t/font_1442373896_4754455.svg#ifont") format("svg"); }

]]></style></defs><g class="transform-group"><g transform="scale(0.125, 0.125)"><path d="M126.912 729.568l106.4 0c22.784 0 41.408 18.624 41.408 41.408l0 43.616 4.064 0 19.488 0 6.016 0 0-43.616c0-22.784 18.624-41.408 41.376-41.408l106.432 0c22.72 0 41.408 18.624 41.408 41.408l0 43.616 6.976 0 16.544 0 8.992 0 0-43.616c0-22.784 18.624-41.408 41.408-41.408l106.4 0c22.784 0 41.408 18.624 41.408 41.408l0 43.616 6.528 0 16.992 0 8.512 0 0-43.616c0-22.784 18.592-41.408 41.376-41.408l106.432 0c22.784 0 41.376 18.624 41.376 41.408l0 43.616L960 814.592l0 23.616-23.552 0L936.448 896l-189.184 0 0-57.792-8.512 0-16.992 0-6.528 0L715.232 896l-189.216 0 0-57.792-8.992 0L500.48 838.208l-6.976 0L493.504 896 304.288 896l0-57.792L298.272 838.208 278.784 838.208 274.72 838.208 274.72 896 85.472 896l0-57.792L60.032 838.208l0-23.616 25.472 0 0-43.616C85.472 748.192 104.128 729.568 126.912 729.568L126.912 729.568zM330.304 199.616c100.288 88.8 255.2 79.872 349.664-8.128-32.992-26.752-54.144-64.992-69.632-108.704L410.88 82.784C393.728 131.136 369.728 172.8 330.304 199.616L330.304 199.616zM390.24 188.032c75.872 20.8 152.224 19.488 229.024 0C538.56 232.256 479.104 241.248 390.24 188.032L390.24 188.032zM433.504 107.296c47.232 12.992 94.688 12.16 142.432 0C525.792 134.816 488.8 140.448 433.504 107.296L433.504 107.296zM417.056 146.912c58.112 15.936 116.608 14.976 175.424 0C530.656 180.768 485.088 187.648 417.056 146.912L417.056 146.912zM934.688 600.8c-37.664-0.192-75.392-0.448-113.12-0.736-3.584-124.32 5.376-245.184 45.12-357.664-134.464-4.864-194.784-71.968-230.592-159.648 99.52 0 199.04 0 298.592 0C934.688 255.488 934.688 428.128 934.688 600.8L934.688 600.8zM885.568 218.72c-59.584-12.992-112.672-43.008-148.576-117.152-14.528 0-29.056 0-43.584 0C727.456 176.608 796.384 209.76 885.568 218.72L885.568 218.72zM90.016 600.8c0-172.672 0-345.312 0-518.016 99.456 0 199.04 0 298.56 0-35.872 87.648-96.128 154.784-230.592 159.648 39.712 112.48 48.768 233.344 45.056 357.664C165.344 600.32 127.68 600.576 90.016 600.8L90.016 600.8zM139.072 218.72C198.72 205.76 251.68 175.712 287.616 101.568c14.592 0 29.088 0 43.616 0C297.248 176.608 228.256 209.76 139.072 218.72L139.072 218.72zM843.136 648.352c28.64 0 51.744 23.136 51.744 51.744 0 6.432-1.12 12.608-3.296 18.336l-96.8 0c-2.144-5.696-3.392-11.904-3.392-18.336C791.392 671.52 814.592 648.352 843.136 648.352L843.136 648.352zM621.92 648.352c28.544 0 51.744 23.136 51.744 51.744 0 6.432-1.184 12.608-3.328 18.336l-96.8 0c-2.176-5.696-3.328-11.904-3.328-18.336C570.208 671.52 593.344 648.352 621.92 648.352L621.92 648.352zM400.192 648.352c28.544 0 51.744 23.136 51.744 51.744 0 6.432-1.248 12.608-3.328 18.336l-96.8 0c-2.144-5.696-3.328-11.904-3.328-18.336C348.48 671.52 371.616 648.352 400.192 648.352L400.192 648.352zM181.472 648.352c28.544 0 51.744 23.136 51.744 51.744 0 6.432-1.248 12.608-3.392 18.336L133.024 718.432c-2.144-5.696-3.328-11.904-3.328-18.336C129.664 671.52 152.832 648.352 181.472 648.352z" fill="#cc3d55"></path></g></g></svg>