<?xml version="1.0" standalone="no"?><!DOCTYPE svg PUBLIC "-//W3C//DTD SVG 1.1//EN" "http://www.w3.org/Graphics/SVG/1.1/DTD/svg11.dtd"><svg width="128" height="128" viewBox="0 0 128 128" version="1.1" xmlns="http://www.w3.org/2000/svg" xmlns:xlink="http://www.w3.org/1999/xlink"><defs><style type="text/css"><![CDATA[
@font-face { font-family: ifont; src: url("//at.alicdn.com/t/font_1442373896_4754455.eot?#iefix") format("embedded-opentype"), url("//at.alicdn.com/t/font_1442373896_4754455.woff") format("woff"), url("//at.alicdn.com/t/font_1442373896_4754455.ttf") format("truetype"), url("//at.alicdn.com/t/font_1442373896_4754455.svg#ifont") format("svg"); }

]]></style></defs><g class="transform-group"><g transform="scale(0.125, 0.125)"><path d="M175.576064 186.831872c62.905344-70.912 139.383808-116.087808 199.57248-117.902336 8.971264-0.264192 17.281024-3.99872 23.409664-10.518528 6.16448-6.549504 9.397248-15.123456 9.109504-24.155136-0.613376-18.224128-15.357952-32.500736-33.570816-32.500736l-1.087488 0.018432c-79.248384 2.476032-171.836416 54.976512-247.666688 140.444672C45.980672 231.64416 3.090432 336.201728 10.607616 421.900288c1.496064 17.184768 16.175104 30.650368 33.420288 30.650368 0.973824 0 1.952768-0.041984 2.944-0.129024l0.79872-0.083968c18.020352-2.000896 31.353856-18.305024 29.724672-36.328448C71.661568 349.39392 109.246464 261.576704 175.576064 186.831872zM378.651648 179.963904c8.808448-0.060416 17.076224-3.632128 23.289856-10.058752 6.285312-6.501376 9.752576-15.403008 9.511936-24.428544-0.51712-18.302976-15.232-32.638976-33.498112-32.638976l-0.973824 0.01536c-57.900032 1.318912-122.745856 38.447104-173.4656 99.314688-51.37408 61.664256-76.490752 134.10816-67.183616 193.774592 2.487296 16.226304 16.72192 28.460032 33.120256 28.460032 0 0 0 0 0.006144 0 1.225728 0 2.469888-0.06656 3.851264-0.222208l1.340416-0.198656c18.290688-2.869248 30.872576-20.069376 28.04224-38.344704-6.30272-40.27904 13.796352-94.1056 52.450304-140.471296C292.595712 210.19648 339.992576 181.378048 378.651648 179.963904zM1014.066176 382.585856c-4.452352-29.349888-20.141056-56.157184-44.187648-75.487232L693.219328 84.88448c-21.781504-17.47968-48.646144-27.10528-75.643904-27.10528-32.477184 0-62.220288 13.847552-81.604608 37.9904L117.796864 616.411136c-36.917248 45.955072-26.468352 115.898368 23.283712 155.922432l276.622336 222.198784c21.787648 17.467392 48.658432 27.086848 75.655168 27.08992 32.483328 0 62.237696-13.847552 81.622016-37.981184l418.163712-520.614912C1011.116032 440.701952 1018.54208 412.133376 1014.066176 382.585856zM387.166208 841.724928c-3.352576 4.197376-9.253888 5.080064-13.609984 5.080064-12.420096 0-28.14464-6.672384-42.073088-17.849344-11.224064-9.010176-19.83488-19.738624-24.245248-30.209024-3.821568-9.07264-3.917824-16.89088-0.246784-21.450752 3.383296-4.214784 9.295872-5.101568 13.664256-5.101568 12.407808 0 28.121088 6.675456 42.037248 17.851392C386.31936 809.037824 394.563584 832.51712 387.166208 841.724928zM890.875904 474.191872 632.363008 795.9808c-27.201536 33.901568-61.535232 56.680448-85.443584 56.680448-6.122496 0-11.175936-1.570816-15.02208-4.677632L259.511296 629.24288c-8.730624-7.000064-11.062272-22.232064-6.40512-41.78432 5.107712-21.4272 17.719296-45.428736 35.511296-67.586048L547.130368 198.01088c27.231232-33.864704 61.606912-56.613888 85.527552-56.613888 6.111232 0 11.152384 1.559552 14.985216 4.632576l272.350208 218.753024C939.341824 380.398592 926.002176 430.501888 890.875904 474.191872z" fill="#0085a7"></path></g></g></svg>